<svg xmlns="http://www.w3.org/2000/svg" width="931" height="931" viewBox="0 0 931 931" version="1.1"><path d="M 464.589 116.001 C 464.273 117.376, 463.551 120.679, 462.983 123.341 C 460.019 137.244, 453.673 143.521, 440.096 145.983 C 397.495 153.708, 359.992 186.676, 346.118 228.596 C 338.509 251.588, 337.953 280.641, 344.677 304 C 353.672 335.251, 378.703 364.884, 408.829 379.944 C 437.625 394.340, 474.195 397.039, 504.207 386.984 C 545.167 373.261, 574.965 341.130, 585.596 299.220 C 592.416 272.334, 590.016 242.767, 579.127 219.531 C 574.192 208.999, 571.416 205, 569.039 205 C 565.659 205, 566.152 207.658, 571.565 218.603 C 584.667 245.095, 586.609 276.594, 576.962 306.118 C 569.055 330.313, 552.248 352.396, 530.940 366.586 C 489.755 394.015, 439.577 393.703, 397.798 365.757 C 343.221 329.251, 329.669 253.677, 368.034 199.769 C 382.571 179.343, 403.042 164.267, 427.444 156.019 C 440.053 151.757, 443.032 151.472, 448.150 154.039 C 456.506 158.229, 460.989 164.186, 463.063 173.857 C 463.643 176.564, 464.691 179.563, 465.391 180.520 C 466.506 182.045, 466.884 181.470, 468.447 175.880 C 469.428 172.371, 471.032 167.925, 472.013 166 C 474.774 160.576, 481.914 154.090, 486.475 152.861 C 492.637 151.200, 496 149.835, 496 148.997 C 496 148.579, 493.915 147.712, 491.366 147.070 C 480.066 144.225, 473.321 138.016, 470.060 127.458 C 468.927 123.790, 468 120.023, 468 119.086 C 468 118.149, 467.362 116.509, 466.581 115.442 C 465.208 113.564, 465.145 113.582, 464.589 116.001 M 521.528 172.500 C 518.367 181.564, 514.508 185.986, 509.750 185.996 C 506.828 186.003, 507.790 187.776, 511.353 188.951 C 515.738 190.399, 518.403 193.364, 520.833 199.500 L 522.812 204.500 523.906 201.685 C 524.508 200.137, 525 198.484, 525 198.012 C 525 196.050, 530.669 190.631, 534.442 188.986 C 537.976 187.446, 538.242 187.120, 536.500 186.461 C 528.180 183.315, 527.969 183.136, 525.084 176.789 C 522.752 171.659, 522.097 170.869, 521.528 172.500 M 405.171 207.403 C 403.352 212.433, 400.359 215.762, 396.988 216.503 C 393.441 217.282, 393.125 218.593, 396.250 219.564 C 400.795 220.975, 403.906 224.121, 405.851 229.275 C 407.428 233.453, 407.952 234.099, 408.464 232.500 C 411.013 224.543, 416.119 219, 420.901 219 C 423.244 219, 421.847 217.125, 419.047 216.510 C 414.829 215.584, 411.648 212.763, 409.533 208.073 C 408.523 205.833, 407.405 204, 407.049 204 C 406.693 204, 405.848 205.531, 405.171 207.403 M 459.500 221.905 C 456.073 223.425, 451.876 228.616, 451.026 232.386 C 449.370 239.727, 452.761 247.245, 459.250 250.621 L 462 252.051 462 271.526 C 462 282.237, 461.789 291, 461.532 291 C 461.274 291, 455.537 286.957, 448.782 282.017 C 434.705 271.720, 431 270.770, 431 277.457 C 431 278.168, 437.303 283.333, 445.006 288.934 L 459.012 299.118 446.006 308.761 C 438.780 314.118, 433 319.114, 433 320.002 C 433 321.905, 434.907 324, 436.639 324 C 437.321 324, 443.299 319.958, 449.923 315.017 L 461.967 306.034 462.234 332.767 L 462.500 359.500 465.250 359.816 C 466.762 359.990, 468.094 359.990, 468.208 359.816 C 468.323 359.642, 468.660 347.677, 468.958 333.226 L 469.500 306.951 481.439 315.476 C 493.444 324.047, 495.591 325.009, 497.800 322.800 C 500.426 320.174, 498.590 318.122, 485.004 308.503 C 477.306 303.052, 471.343 298.288, 471.754 297.915 C 472.164 297.543, 478.715 292.654, 486.311 287.051 C 497.571 278.744, 500.064 276.461, 499.811 274.682 C 499.266 270.859, 495.972 272.288, 482.250 282.297 L 469 291.962 469 272 L 469 252.038 471.476 251.417 C 475.049 250.520, 480.769 243.748, 481.573 239.463 C 482.529 234.365, 480.672 229.044, 476.537 225.036 C 473.491 222.083, 472.254 221.589, 467.261 221.324 C 464.093 221.156, 460.600 221.418, 459.500 221.905 M 459.636 229.636 C 455.848 233.425, 455.969 239.123, 459.923 243.077 C 466.568 249.722, 477.560 243.379, 475.517 234.078 C 474 227.172, 464.701 224.571, 459.636 229.636 M 254.636 348.110 C 252.445 351.237, 252.482 351.460, 256.503 359.443 L 260 366.385 260 399.462 L 260 432.539 245.373 435.337 C 237.328 436.876, 225.156 438.952, 218.324 439.949 C 211.493 440.947, 205.646 442.021, 205.332 442.335 C 203.107 444.560, 211.270 454.553, 218.210 458.103 C 223.038 460.571, 228.654 460.462, 243.500 457.610 C 250.100 456.342, 255.579 455.353, 255.675 455.411 C 255.771 455.469, 252.023 463.163, 247.346 472.508 C 236.419 494.340, 228.707 507.176, 217.420 522.318 C 208.883 533.771, 204.595 538.769, 184.270 560.955 C 175.882 570.110, 174.746 573, 179.534 573 C 182.709 573, 193.547 567.216, 201.187 561.445 C 214.947 551.051, 237.539 525.901, 254 502.654 L 259.500 494.886 259.824 503.193 C 260.609 523.343, 256.781 576.198, 253.516 590.274 C 252.129 596.254, 252.123 597.720, 253.461 604.137 C 256.595 619.164, 265.324 632, 272.411 632 C 276.911 632, 280.228 628.063, 283.189 619.204 L 285.431 612.500 285.099 547.250 C 284.913 510.804, 285.149 482.034, 285.633 482.076 C 286.110 482.118, 288.859 486.956, 291.742 492.826 C 304.896 519.611, 321.503 543.240, 340.628 562.384 C 354.333 576.103, 358.506 578.571, 366.412 577.635 C 372.829 576.875, 401.279 569.746, 406.348 567.628 C 412.458 565.075, 410.992 563.246, 397.433 556.500 C 384.245 549.939, 361.192 534.950, 348.304 524.556 C 329.937 509.743, 315.726 494.431, 295.735 467.912 C 288.675 458.547, 287 455.662, 287 452.869 L 287 449.413 306.250 446.219 C 316.837 444.463, 330 442.775, 335.500 442.467 C 351.125 441.595, 353.734 441.095, 356.995 438.351 C 362.175 433.992, 360.611 428.432, 352.036 420.722 C 342.571 412.213, 332.901 410.872, 320.891 416.405 C 313.171 419.961, 303.928 422.964, 293.111 425.430 L 286.723 426.887 287.414 405.194 C 288.044 385.441, 288.313 383.053, 290.424 378.500 C 293.906 370.989, 293.957 370.619, 292.060 366.384 C 288.149 357.647, 272.133 347.090, 261.445 346.204 C 256.898 345.827, 256.073 346.058, 254.636 348.110 M 618.750 364.567 C 616.522 366.844, 618.291 370.012, 624.750 375.308 C 639.375 387.299, 652.839 402.522, 665.528 421.412 C 667.779 424.762, 671.450 428.586, 674 430.237 C 677.811 432.703, 679.279 433.089, 683.592 432.755 C 692.926 432.034, 698.833 425.091, 697.623 416.263 C 696.656 409.210, 690.411 398.540, 682.551 390.513 C 675.205 383.011, 668.016 378.274, 655.917 372.963 C 644.322 367.875, 620.729 362.544, 618.750 364.567 M 144.250 366.040 C 142.043 366.919, 141.545 368.007, 141.982 370.996 C 142.102 371.819, 145.439 376.094, 149.397 380.496 C 153.354 384.898, 159.372 391.937, 162.769 396.138 C 171.290 406.675, 174.247 409, 179.126 409 C 188.881 409, 195.466 400.628, 193.587 390.614 C 192.692 385.841, 186.210 378.924, 179.066 375.116 C 171.678 371.178, 160.690 367.353, 154.259 366.479 C 151.642 366.123, 148.825 365.677, 148 365.489 C 147.175 365.300, 145.488 365.548, 144.250 366.040 M 565.058 422.430 C 564.406 423.216, 563.211 428.953, 562.404 435.180 C 558.634 464.253, 548.835 492.818, 533.171 520.390 C 523.690 537.078, 522.330 543.135, 525.438 554.813 C 528.037 564.575, 532.371 568.716, 538.740 567.521 C 541.636 566.978, 544.081 565.170, 549.494 559.571 C 569.986 538.373, 581.903 501.002, 580.760 461.523 C 580.359 447.699, 579.933 444.389, 577.655 437.410 C 574.920 429.032, 570.007 421, 567.616 421 C 566.862 421, 565.711 421.643, 565.058 422.430 M 119.200 442.200 C 117.112 444.288, 117.845 446.009, 124.157 453.851 C 127.544 458.058, 134.081 467.228, 138.686 474.230 C 143.290 481.231, 147.914 487.419, 148.963 487.980 C 154.631 491.014, 161.514 487.624, 165.361 479.903 C 169.952 470.691, 168.479 462.262, 161.156 455.832 C 156.369 451.629, 142.956 445.418, 133.374 442.968 C 124.517 440.702, 120.894 440.506, 119.200 442.200 M 736.250 445.662 C 733.731 446.679, 735.166 449.244, 742.771 457.317 C 751.830 466.935, 760.659 478.554, 769.326 492.266 C 790.208 525.302, 792.540 528, 800.198 528 C 804.999 528, 808.944 526.044, 812.381 521.959 C 815.802 517.893, 815.859 511.055, 812.551 501.679 C 805.507 481.719, 787.712 462.855, 765.686 451.999 C 755.127 446.794, 740.987 443.751, 736.250 445.662 M 617.031 448.462 C 614.590 451.404, 612.015 531.242, 613.907 545.319 C 615.281 555.536, 619.044 566.724, 623.090 572.620 C 630.252 583.056, 644.489 591.852, 660.947 596.009 C 698.086 605.391, 764.185 601.123, 777.592 588.478 C 781.263 585.016, 781.269 584.998, 780.780 578.167 C 780.413 573.035, 779.500 569.847, 777.126 565.412 C 773.348 558.352, 759.310 539.377, 749.310 527.814 C 739.387 516.340, 722.216 499.450, 721.353 500.314 C 720.961 500.706, 722.959 507.883, 725.792 516.263 C 732.497 536.096, 738.008 555.651, 737.968 559.468 C 737.901 565.886, 733.444 568.071, 716.469 570.009 C 702.902 571.558, 682.098 570.683, 669.081 568.017 C 652.448 564.609, 643.111 558.258, 639.143 547.653 C 636.722 541.182, 635.606 532.500, 633.468 503.500 C 630.569 464.176, 623.536 440.625, 617.031 448.462 M 187.252 480.207 C 186.667 480.918, 179.808 493.620, 172.010 508.433 C 149.150 551.858, 142.844 562.210, 134.658 569.750 C 130.517 573.565, 129.534 574, 125.058 574 C 117.983 574, 116.901 576.233, 120.455 583.498 C 123.140 588.986, 134.448 602.606, 141.836 609.250 C 150.483 617.027, 151.552 615.396, 164.612 574.500 C 168.300 562.950, 174.200 544.500, 177.723 533.500 C 184.764 511.512, 190.628 489.700, 191.159 483.525 C 191.418 480.507, 191.117 479.473, 189.908 479.232 C 189.032 479.057, 187.837 479.496, 187.252 480.207 M 650.618 690.467 C 638.662 701.589, 623.492 711.755, 604.935 721.081 C 582.320 732.447, 568.463 735.972, 543.500 736.710 C 513.932 737.584, 502.001 735.178, 451 718.056 C 433.125 712.056, 414.225 706.240, 409 705.133 C 371.157 697.114, 337.213 701.335, 301.500 718.502 C 289.599 724.222, 285 727.317, 285 729.604 C 285 732.171, 287.462 732.147, 296.585 729.493 C 317.514 723.405, 344.604 720.785, 364.500 722.926 C 386.158 725.256, 395.001 727.656, 443.500 744.367 C 465.653 751.999, 485.828 757.247, 502 759.584 C 517.584 761.835, 549.467 761.070, 562 758.144 C 591.705 751.209, 617.359 736.329, 642.271 711.585 C 651.175 702.741, 661.302 688.806, 660.783 686.111 C 660.179 682.974, 657.387 684.170, 650.618 690.467 M 347.500 746.491 C 346.950 746.675, 345.233 747.105, 343.685 747.448 C 341.503 747.931, 340.941 748.561, 341.185 750.250 C 341.446 752.058, 343.293 753.025, 352 755.912 C 358.269 757.991, 373.782 765.086, 390.500 773.519 C 426.639 791.750, 441.132 796.624, 466.384 799.041 C 487.607 801.072, 512.776 795.842, 530.404 785.738 C 534.541 783.367, 536.894 780.561, 535.725 779.392 C 535.338 779.005, 529.954 779.983, 523.761 781.565 C 513.330 784.229, 511.100 784.443, 493.500 784.471 C 478.875 784.493, 472.543 784.083, 466 782.690 C 452.146 779.740, 435.747 773.806, 414.770 764.151 C 391.373 753.383, 380.729 749.486, 369.240 747.483 C 361.585 746.148, 350.100 745.624, 347.500 746.491" stroke="none" fill="#4b3e53" fill-rule="evenodd"/><path d="M 433 0.595 C 431.075 0.807, 424.550 1.455, 418.500 2.036 C 378.990 5.826, 333.651 16.848, 295 32.061 C 233.629 56.215, 180.122 91.682, 133.427 139.158 C 59.650 214.170, 15.898 306.029, 2.282 414.500 C 0.890 425.594, 0.525 436.181, 0.525 465.500 C 0.525 505.150, 1.208 514.104, 6.630 545.500 C 17.150 606.419, 41.115 667.471, 74.735 719 C 92.917 746.867, 109.797 767.816, 133.427 791.842 C 158.269 817.100, 179.138 834.359, 208 853.518 C 270.068 894.717, 336.573 918.936, 414.500 928.718 C 434.601 931.241, 496.399 931.241, 516.500 928.718 C 573.478 921.566, 623.043 907.067, 670.500 883.670 C 717.465 860.516, 754.726 834.078, 791.842 797.573 C 854.470 735.976, 896.846 661.523, 917.954 576 C 923.904 551.894, 929.964 513.532, 929.991 499.809 C 929.996 497.229, 930.450 494.840, 931 494.500 C 931.630 494.111, 932 482.970, 932 464.382 C 932 444.970, 931.658 435.093, 931 435.500 C 930.387 435.879, 929.996 434.258, 929.991 431.309 C 929.986 428.664, 929.301 420.650, 928.469 413.500 C 922.223 359.845, 906.977 307.774, 883.670 260.500 C 859.462 211.397, 830.824 171.767, 791.842 133.427 C 717.109 59.924, 624.933 15.905, 517.500 2.412 C 505.266 0.875, 442.660 -0.471, 433 0.595 M 464.589 116.001 C 464.273 117.376, 463.551 120.679, 462.983 123.341 C 460.019 137.244, 453.673 143.521, 440.096 145.983 C 397.495 153.708, 359.992 186.676, 346.118 228.596 C 338.509 251.588, 337.953 280.641, 344.677 304 C 353.672 335.251, 378.703 364.884, 408.829 379.944 C 437.625 394.340, 474.195 397.039, 504.207 386.984 C 545.167 373.261, 574.965 341.130, 585.596 299.220 C 592.416 272.334, 590.016 242.767, 579.127 219.531 C 574.192 208.999, 571.416 205, 569.039 205 C 565.659 205, 566.152 207.658, 571.565 218.603 C 584.667 245.095, 586.609 276.594, 576.962 306.118 C 569.055 330.313, 552.248 352.396, 530.940 366.586 C 489.755 394.015, 439.577 393.703, 397.798 365.757 C 343.221 329.251, 329.669 253.677, 368.034 199.769 C 382.571 179.343, 403.042 164.267, 427.444 156.019 C 440.053 151.757, 443.032 151.472, 448.150 154.039 C 456.506 158.229, 460.989 164.186, 463.063 173.857 C 463.643 176.564, 464.691 179.563, 465.391 180.520 C 466.506 182.045, 466.884 181.470, 468.447 175.880 C 469.428 172.371, 471.032 167.925, 472.013 166 C 474.774 160.576, 481.914 154.090, 486.475 152.861 C 492.637 151.200, 496 149.835, 496 148.997 C 496 148.579, 493.915 147.712, 491.366 147.070 C 480.066 144.225, 473.321 138.016, 470.060 127.458 C 468.927 123.790, 468 120.023, 468 119.086 C 468 118.149, 467.362 116.509, 466.581 115.442 C 465.208 113.564, 465.145 113.582, 464.589 116.001 M 521.528 172.500 C 518.367 181.564, 514.508 185.986, 509.750 185.996 C 506.828 186.003, 507.790 187.776, 511.353 188.951 C 515.738 190.399, 518.403 193.364, 520.833 199.500 L 522.812 204.500 523.906 201.685 C 524.508 200.137, 525 198.484, 525 198.012 C 525 196.050, 530.669 190.631, 534.442 188.986 C 537.976 187.446, 538.242 187.120, 536.500 186.461 C 528.180 183.315, 527.969 183.136, 525.084 176.789 C 522.752 171.659, 522.097 170.869, 521.528 172.500 M 405.171 207.403 C 403.352 212.433, 400.359 215.762, 396.988 216.503 C 393.441 217.282, 393.125 218.593, 396.250 219.564 C 400.795 220.975, 403.906 224.121, 405.851 229.275 C 407.428 233.453, 407.952 234.099, 408.464 232.500 C 411.013 224.543, 416.119 219, 420.901 219 C 423.244 219, 421.847 217.125, 419.047 216.510 C 414.829 215.584, 411.648 212.763, 409.533 208.073 C 408.523 205.833, 407.405 204, 407.049 204 C 406.693 204, 405.848 205.531, 405.171 207.403 M 459.500 221.905 C 456.073 223.425, 451.876 228.616, 451.026 232.386 C 449.370 239.727, 452.761 247.245, 459.250 250.621 L 462 252.051 462 271.526 C 462 282.237, 461.789 291, 461.532 291 C 461.274 291, 455.537 286.957, 448.782 282.017 C 434.705 271.720, 431 270.770, 431 277.457 C 431 278.168, 437.303 283.333, 445.006 288.934 L 459.012 299.118 446.006 308.761 C 438.780 314.118, 433 319.114, 433 320.002 C 433 321.905, 434.907 324, 436.639 324 C 437.321 324, 443.299 319.958, 449.923 315.017 L 461.967 306.034 462.234 332.767 L 462.500 359.500 465.250 359.816 C 466.762 359.990, 468.094 359.990, 468.208 359.816 C 468.323 359.642, 468.660 347.677, 468.958 333.226 L 469.500 306.951 481.439 315.476 C 493.444 324.047, 495.591 325.009, 497.800 322.800 C 500.426 320.174, 498.590 318.122, 485.004 308.503 C 477.306 303.052, 471.343 298.288, 471.754 297.915 C 472.164 297.543, 478.715 292.654, 486.311 287.051 C 497.571 278.744, 500.064 276.461, 499.811 274.682 C 499.266 270.859, 495.972 272.288, 482.250 282.297 L 469 291.962 469 272 L 469 252.038 471.476 251.417 C 475.049 250.520, 480.769 243.748, 481.573 239.463 C 482.529 234.365, 480.672 229.044, 476.537 225.036 C 473.491 222.083, 472.254 221.589, 467.261 221.324 C 464.093 221.156, 460.600 221.418, 459.500 221.905 M 459.636 229.636 C 455.848 233.425, 455.969 239.123, 459.923 243.077 C 466.568 249.722, 477.560 243.379, 475.517 234.078 C 474 227.172, 464.701 224.571, 459.636 229.636 M 254.636 348.110 C 252.445 351.237, 252.482 351.460, 256.503 359.443 L 260 366.385 260 399.462 L 260 432.539 245.373 435.337 C 237.328 436.876, 225.156 438.952, 218.324 439.949 C 211.493 440.947, 205.646 442.021, 205.332 442.335 C 203.107 444.560, 211.270 454.553, 218.210 458.103 C 223.038 460.571, 228.654 460.462, 243.500 457.610 C 250.100 456.342, 255.579 455.353, 255.675 455.411 C 255.771 455.469, 252.023 463.163, 247.346 472.508 C 236.419 494.340, 228.707 507.176, 217.420 522.318 C 208.883 533.771, 204.595 538.769, 184.270 560.955 C 175.882 570.110, 174.746 573, 179.534 573 C 182.709 573, 193.547 567.216, 201.187 561.445 C 214.947 551.051, 237.539 525.901, 254 502.654 L 259.500 494.886 259.824 503.193 C 260.609 523.343, 256.781 576.198, 253.516 590.274 C 252.129 596.254, 252.123 597.720, 253.461 604.137 C 256.595 619.164, 265.324 632, 272.411 632 C 276.911 632, 280.228 628.063, 283.189 619.204 L 285.431 612.500 285.099 547.250 C 284.913 510.804, 285.149 482.034, 285.633 482.076 C 286.110 482.118, 288.859 486.956, 291.742 492.826 C 304.896 519.611, 321.503 543.240, 340.628 562.384 C 354.333 576.103, 358.506 578.571, 366.412 577.635 C 372.829 576.875, 401.279 569.746, 406.348 567.628 C 412.458 565.075, 410.992 563.246, 397.433 556.500 C 384.245 549.939, 361.192 534.950, 348.304 524.556 C 329.937 509.743, 315.726 494.431, 295.735 467.912 C 288.675 458.547, 287 455.662, 287 452.869 L 287 449.413 306.250 446.219 C 316.837 444.463, 330 442.775, 335.500 442.467 C 351.125 441.595, 353.734 441.095, 356.995 438.351 C 362.175 433.992, 360.611 428.432, 352.036 420.722 C 342.571 412.213, 332.901 410.872, 320.891 416.405 C 313.171 419.961, 303.928 422.964, 293.111 425.430 L 286.723 426.887 287.414 405.194 C 288.044 385.441, 288.313 383.053, 290.424 378.500 C 293.906 370.989, 293.957 370.619, 292.060 366.384 C 288.149 357.647, 272.133 347.090, 261.445 346.204 C 256.898 345.827, 256.073 346.058, 254.636 348.110 M 618.750 364.567 C 616.522 366.844, 618.291 370.012, 624.750 375.308 C 639.375 387.299, 652.839 402.522, 665.528 421.412 C 667.779 424.762, 671.450 428.586, 674 430.237 C 677.811 432.703, 679.279 433.089, 683.592 432.755 C 692.926 432.034, 698.833 425.091, 697.623 416.263 C 696.656 409.210, 690.411 398.540, 682.551 390.513 C 675.205 383.011, 668.016 378.274, 655.917 372.963 C 644.322 367.875, 620.729 362.544, 618.750 364.567 M 144.250 366.040 C 142.043 366.919, 141.545 368.007, 141.982 370.996 C 142.102 371.819, 145.439 376.094, 149.397 380.496 C 153.354 384.898, 159.372 391.937, 162.769 396.138 C 171.290 406.675, 174.247 409, 179.126 409 C 188.881 409, 195.466 400.628, 193.587 390.614 C 192.692 385.841, 186.210 378.924, 179.066 375.116 C 171.678 371.178, 160.690 367.353, 154.259 366.479 C 151.642 366.123, 148.825 365.677, 148 365.489 C 147.175 365.300, 145.488 365.548, 144.250 366.040 M 565.058 422.430 C 564.406 423.216, 563.211 428.953, 562.404 435.180 C 558.634 464.253, 548.835 492.818, 533.171 520.390 C 523.690 537.078, 522.330 543.135, 525.438 554.813 C 528.037 564.575, 532.371 568.716, 538.740 567.521 C 541.636 566.978, 544.081 565.170, 549.494 559.571 C 569.986 538.373, 581.903 501.002, 580.760 461.523 C 580.359 447.699, 579.933 444.389, 577.655 437.410 C 574.920 429.032, 570.007 421, 567.616 421 C 566.862 421, 565.711 421.643, 565.058 422.430 M 0.443 465.500 C 0.443 482, 0.580 488.890, 0.748 480.812 C 0.915 472.733, 0.916 459.233, 0.748 450.812 C 0.581 442.390, 0.444 449, 0.443 465.500 M 119.200 442.200 C 117.112 444.288, 117.845 446.009, 124.157 453.851 C 127.544 458.058, 134.081 467.228, 138.686 474.230 C 143.290 481.231, 147.914 487.419, 148.963 487.980 C 154.631 491.014, 161.514 487.624, 165.361 479.903 C 169.952 470.691, 168.479 462.262, 161.156 455.832 C 156.369 451.629, 142.956 445.418, 133.374 442.968 C 124.517 440.702, 120.894 440.506, 119.200 442.200 M 736.250 445.662 C 733.731 446.679, 735.166 449.244, 742.771 457.317 C 751.830 466.935, 760.659 478.554, 769.326 492.266 C 790.208 525.302, 792.540 528, 800.198 528 C 804.999 528, 808.944 526.044, 812.381 521.959 C 815.802 517.893, 815.859 511.055, 812.551 501.679 C 805.507 481.719, 787.712 462.855, 765.686 451.999 C 755.127 446.794, 740.987 443.751, 736.250 445.662 M 617.031 448.462 C 614.590 451.404, 612.015 531.242, 613.907 545.319 C 615.281 555.536, 619.044 566.724, 623.090 572.620 C 630.252 583.056, 644.489 591.852, 660.947 596.009 C 698.086 605.391, 764.185 601.123, 777.592 588.478 C 781.263 585.016, 781.269 584.998, 780.780 578.167 C 780.413 573.035, 779.500 569.847, 777.126 565.412 C 773.348 558.352, 759.310 539.377, 749.310 527.814 C 739.387 516.340, 722.216 499.450, 721.353 500.314 C 720.961 500.706, 722.959 507.883, 725.792 516.263 C 732.497 536.096, 738.008 555.651, 737.968 559.468 C 737.901 565.886, 733.444 568.071, 716.469 570.009 C 702.902 571.558, 682.098 570.683, 669.081 568.017 C 652.448 564.609, 643.111 558.258, 639.143 547.653 C 636.722 541.182, 635.606 532.500, 633.468 503.500 C 630.569 464.176, 623.536 440.625, 617.031 448.462 M 187.252 480.207 C 186.667 480.918, 179.808 493.620, 172.010 508.433 C 149.150 551.858, 142.844 562.210, 134.658 569.750 C 130.517 573.565, 129.534 574, 125.058 574 C 117.983 574, 116.901 576.233, 120.455 583.498 C 123.140 588.986, 134.448 602.606, 141.836 609.250 C 150.483 617.027, 151.552 615.396, 164.612 574.500 C 168.300 562.950, 174.200 544.500, 177.723 533.500 C 184.764 511.512, 190.628 489.700, 191.159 483.525 C 191.418 480.507, 191.117 479.473, 189.908 479.232 C 189.032 479.057, 187.837 479.496, 187.252 480.207 M 650.618 690.467 C 638.662 701.589, 623.492 711.755, 604.935 721.081 C 582.320 732.447, 568.463 735.972, 543.500 736.710 C 513.932 737.584, 502.001 735.178, 451 718.056 C 433.125 712.056, 414.225 706.240, 409 705.133 C 371.157 697.114, 337.213 701.335, 301.500 718.502 C 289.599 724.222, 285 727.317, 285 729.604 C 285 732.171, 287.462 732.147, 296.585 729.493 C 317.514 723.405, 344.604 720.785, 364.500 722.926 C 386.158 725.256, 395.001 727.656, 443.500 744.367 C 465.653 751.999, 485.828 757.247, 502 759.584 C 517.584 761.835, 549.467 761.070, 562 758.144 C 591.705 751.209, 617.359 736.329, 642.271 711.585 C 651.175 702.741, 661.302 688.806, 660.783 686.111 C 660.179 682.974, 657.387 684.170, 650.618 690.467 M 347.500 746.491 C 346.950 746.675, 345.233 747.105, 343.685 747.448 C 341.503 747.931, 340.941 748.561, 341.185 750.250 C 341.446 752.058, 343.293 753.025, 352 755.912 C 358.269 757.991, 373.782 765.086, 390.500 773.519 C 426.639 791.750, 441.132 796.624, 466.384 799.041 C 487.607 801.072, 512.776 795.842, 530.404 785.738 C 534.541 783.367, 536.894 780.561, 535.725 779.392 C 535.338 779.005, 529.954 779.983, 523.761 781.565 C 513.330 784.229, 511.100 784.443, 493.500 784.471 C 478.875 784.493, 472.543 784.083, 466 782.690 C 452.146 779.740, 435.747 773.806, 414.770 764.151 C 391.373 753.383, 380.729 749.486, 369.240 747.483 C 361.585 746.148, 350.100 745.624, 347.500 746.491" stroke="none" fill="#f3e8da" fill-rule="evenodd"/></svg>